<?xml version="1.0" encoding="UTF-8"?>
<svg xmlns="http://www.w3.org/2000/svg" width="200" height="200" viewBox="0 0 200 200" fill="none">
  <g clip-path="url(#clip0_0_3)">
    <circle cx="100" cy="100" r="100" fill="#16161D"></circle>
    <g clip-path="url(#clip1_0_3)">
      <path fill-rule="evenodd" clip-rule="evenodd" d="M0.214417 99.7646C0.214417 44.6674 44.8796 0.00213623 99.9769 0.00213623C155.074 0.00213623 199.739 44.6674 199.739 99.7646C199.739 154.862 155.074 199.527 99.9769 199.527C44.8796 199.527 0.214417 154.862 0.214417 99.7646ZM99.9769 18.3203C54.9963 18.3203 18.5325 54.7841 18.5325 99.7646C18.5325 144.745 54.9963 181.209 99.9769 181.209C144.957 181.209 181.421 144.745 181.421 99.7646C181.421 54.7841 144.957 18.3203 99.9769 18.3203Z" fill="#2F2F2F"></path>
      <path fill-rule="evenodd" clip-rule="evenodd" d="M55.4085 99.7611C55.4085 105.614 56.5613 111.41 58.8011 116.817C61.0409 122.225 64.3239 127.138 68.4626 131.277C72.6013 135.415 77.5146 138.698 82.922 140.938C88.3296 143.178 94.1252 144.331 99.9783 144.331C105.831 144.331 111.627 143.178 117.034 140.938C122.442 138.698 127.355 135.415 131.494 131.277C135.632 127.138 138.915 122.225 141.155 116.817C143.395 111.41 144.548 105.614 144.548 99.7611H162.866C162.866 108.02 161.239 116.197 158.079 123.827C154.918 131.457 150.286 138.39 144.447 144.23C138.607 150.069 131.674 154.702 124.044 157.862C116.414 161.022 108.237 162.649 99.9783 162.649C91.7196 162.649 83.542 161.022 75.912 157.862C68.2822 154.702 61.3493 150.069 55.5098 144.23C49.67 138.39 45.0378 131.457 41.8774 123.827C38.717 116.197 37.0902 108.02 37.0902 99.7611H55.4085Z" fill="#2F2F2F"></path>
      <path d="M78.5304 89.9359C76.9328 90.5976 75.2204 90.938 73.4913 90.938C71.762 90.938 70.0496 90.5976 68.452 89.9359C66.8543 89.2739 65.4028 88.3041 64.18 87.0813C62.9572 85.8585 61.9872 84.407 61.3254 82.8094C60.6637 81.2117 60.3233 79.4994 60.3233 77.77C60.3233 76.0409 60.6637 74.3285 61.3254 72.7309C61.9872 71.1333 62.9572 69.6815 64.18 68.4589C65.4028 67.2361 66.8543 66.2661 68.452 65.6043C70.0496 64.9426 71.762 64.602 73.4913 64.602C75.2204 64.602 76.9328 64.9426 78.5304 65.6043C80.128 66.2661 81.5798 67.2361 82.8024 68.4589C84.0252 69.6815 84.9952 71.1333 85.657 72.7309C86.3187 74.3285 86.6593 76.0409 86.6593 77.77C86.6593 79.4994 86.3187 81.2117 85.657 82.8094C84.9952 84.407 84.0252 85.8585 82.8024 87.0813C81.5798 88.3041 80.128 89.2739 78.5304 89.9359Z" fill="#2F2F2F"></path>
      <path fill-rule="evenodd" clip-rule="evenodd" d="M131.498 89.9359C129.901 90.5976 128.188 90.938 126.459 90.938C124.73 90.938 123.018 90.5976 121.42 89.9359C119.822 89.2739 118.371 88.3041 117.148 87.0813C115.925 85.8585 114.955 84.407 114.293 82.8094C113.632 81.2117 113.291 79.4994 113.291 77.77C113.291 76.0409 113.632 74.3285 114.293 72.7309C114.955 71.1333 115.925 69.6815 117.148 68.4589C118.371 67.2361 119.822 66.2661 121.42 65.6043C123.018 64.9426 124.73 64.602 126.459 64.602C128.188 64.602 129.901 64.9426 131.498 65.6043C133.096 66.2661 134.548 67.2361 135.77 68.4589C136.993 69.6815 137.963 71.1333 138.625 72.7309C139.287 74.3285 139.627 76.0409 139.627 77.77C139.627 79.4994 139.287 81.2117 138.625 82.8094C137.963 84.407 136.993 85.8585 135.77 87.0813C134.548 88.3041 133.096 89.2739 131.498 89.9359Z" fill="#2F2F2F"></path>
    </g>
    <path d="M110 50H70C67.3478 50 64.8043 51.0536 62.9289 52.9289C61.0536 54.8043 60 57.3478 60 60V140C60 142.652 61.0536 145.196 62.9289 147.071C64.8043 148.946 67.3478 150 70 150H130C132.652 150 135.196 148.946 137.071 147.071C138.946 145.196 140 142.652 140 140V80L110 50Z" stroke="white" stroke-width="5" stroke-linecap="round" stroke-linejoin="round"></path>
    <path d="M110 50V80H140" stroke="white" stroke-width="5" stroke-linecap="round" stroke-linejoin="round"></path>
    <path d="M120 105H80" stroke="white" stroke-width="5" stroke-linecap="round" stroke-linejoin="round"></path>
    <path d="M120 125H80" stroke="white" stroke-width="5" stroke-linecap="round" stroke-linejoin="round"></path>
    <path d="M90 85H85H80" stroke="white" stroke-width="5" stroke-linecap="round" stroke-linejoin="round"></path>
  </g>
  <defs>
    <clipPath id="clip0_0_3">
      <rect width="200" height="200" fill="white"></rect>
    </clipPath>
    <clipPath id="clip1_0_3">
      <rect width="200" height="200" fill="white"></rect>
    </clipPath>
  </defs>
</svg>
